# xmcd
#
# Track frame offsets: 
#        187
#        13907
#        32587
#        45825
#        61922
#
# Disc length: 1015 seconds
#
# Revision: 0
# Processed by: cddbd v1.4PL0 Copyright (c) Steve Scherf et al.
# Submitted via: ExactAudioCopy v0.90b3
#
DISCID=3203f505
DTITLE=The Desert Rose Band - She Don't Love Nobody
DYEAR=1900
DGENRE=Country
TTITLE0=She Don't Love Nobody
TTITLE1=Running
TTITLE2=Glass Hearts
TTITLE3=One That Got Away
TTITLE4=Leave This Town
EXTD=
EXTT0=
EXTT1=
EXTT2=
EXTT3=
EXTT4=
PLAYORDER=
